<?xml version="1.0" encoding="utf-8"?>
<!-- Generator: Adobe Illustrator 18.0.0, SVG Export Plug-In . SVG Version: 6.00 Build 0)  -->
<!DOCTYPE svg PUBLIC "-//W3C//DTD SVG 1.1//EN" "http://www.w3.org/Graphics/SVG/1.1/DTD/svg11.dtd">
<svg version="1.1" id="ecommerce_1_" xmlns="http://www.w3.org/2000/svg" xmlns:xlink="http://www.w3.org/1999/xlink" x="0px"
	 y="0px" viewBox="0 0 115 115" style="enable-background:new 0 0 115 115;" xml:space="preserve">
<style type="text/css">
	.st0{fill:#FFEEAD;}
	.st1{fill:#C9B77D;}
	.st2{fill:#99734A;}
	.st3{fill:#FF6F69;}
	.st4{fill:#96CEB4;}
	.st5{fill:none;}
	.st6{fill:#AA9865;}
	.st7{fill:#71A58A;}
	.st8{fill:#FFCC5C;}
	.st9{fill:#825E3B;}
	.st10{fill:#639376;}
	.st11{fill:#E05858;}
	.st12{fill:#C1821E;}
	.st13{fill:#D6A041;}
	.st14{fill:#B28559;}
	.st15{fill:#BF4343;}
	.st16{fill:#D3C089;}
	.st17{fill:#7C5C3C;}
	.st18{fill:#FDCC5C;}
	.st19{fill:#FFFFFF;}
</style>
<g id="closed_1_">
	<g>
		<g>
			<g>
				<g>
					<g>
						<path class="st8" d="M97.453,46.913L61.909,9.987c-1.164-1.21-2.73-1.876-4.409-1.876c-1.679,0-3.245,0.666-4.409,1.876
							L17.547,46.913c-1.731,1.798-2.199,4.343-1.222,6.641c0.977,2.297,3.136,3.724,5.632,3.724h71.088
							c2.496,0,4.654-1.427,5.632-3.724C99.653,51.256,99.184,48.711,97.453,46.913z M96.066,52.444
							c-0.533,1.252-1.663,1.999-3.022,1.999H21.957c-1.36,0-2.49-0.748-3.023-1.999c-0.532-1.251-0.287-2.585,0.656-3.565
							l35.544-36.926c0.624-0.649,1.465-1.006,2.366-1.006c0.901,0,1.742,0.357,2.366,1.006L95.41,48.879
							C96.354,49.859,96.599,51.192,96.066,52.444z"/>
					</g>
				</g>
			</g>
		</g>
		<g>
			<g>
				<path class="st13" d="M97.453,46.913l-6.763-7.026h-3.936l8.655,8.992c0.944,0.98,1.189,2.313,0.656,3.565
					c-0.533,1.252-1.663,1.999-3.022,1.999H21.957c-1.36,0-2.49-0.748-3.023-1.999c-0.532-1.251-0.287-2.585,0.656-3.565
					l8.655-8.992h-3.936l-6.763,7.026c-1.731,1.798-2.199,4.343-1.222,6.641c0.977,2.297,3.136,3.724,5.632,3.724h71.088
					c2.496,0,4.654-1.427,5.632-3.724C99.653,51.256,99.184,48.711,97.453,46.913z"/>
			</g>
		</g>
		<g>
			<g>
				<path class="st13" d="M61.909,9.987c-1.164-1.21-2.73-1.876-4.409-1.876c-1.679,0-3.245,0.666-4.409,1.876l-3.087,3.207
					c0.304,0.966,0.79,1.851,1.417,2.616l3.712-3.857c0.624-0.649,1.465-1.006,2.366-1.006c0.901,0,1.742,0.357,2.366,1.006
					l3.713,3.857c0.627-0.765,1.113-1.65,1.417-2.616L61.909,9.987z"/>
			</g>
		</g>
		<g>
			<g>
				<path class="st4" d="M104.302,42.733H10.698C4.814,44.151,0,48.965,0,54.849v41.522c0,5.884,4.814,10.698,10.698,10.698h93.605
					c5.884,0,10.698-4.814,10.698-10.698V54.849C115,48.965,110.186,44.151,104.302,42.733z"/>
			</g>
		</g>
		<g>
			<g>
				<path class="st7" d="M104.302,46.986H10.698C4.814,46.986,0,51.8,0,57.684v41.522c0,5.884,4.814,10.698,10.698,10.698h93.605
					c5.884,0,10.698-4.814,10.698-10.698V57.684C115,51.8,110.186,46.986,104.302,46.986z"/>
			</g>
		</g>
		<g>
			<g>
				<g>
					<path class="st3" d="M99.072,53.242H15.928c-4.938,0-8.978,4.04-8.978,8.978v32.451c0,4.938,4.04,8.978,8.978,8.978h83.144
						c4.938,0,8.978-4.04,8.978-8.978V62.22C108.05,57.282,104.01,53.242,99.072,53.242z"/>
				</g>
			</g>
			<g>
				<g>
					<g>
						<path class="st8" d="M99.072,51.824H15.928c-5.732,0-10.395,4.664-10.395,10.395v32.452c0,5.731,4.663,10.395,10.395,10.395
							h83.144c5.731,0,10.395-4.664,10.395-10.395V62.219C109.467,56.488,104.803,51.824,99.072,51.824z M106.632,94.671
							c0,4.168-3.392,7.56-7.56,7.56H15.928c-4.168,0-7.56-3.392-7.56-7.56V62.219c0-4.168,3.392-7.56,7.56-7.56h83.144
							c4.168,0,7.56,3.392,7.56,7.56V94.671z"/>
					</g>
				</g>
			</g>
		</g>
		<g>
			<g>
				<circle class="st4" cx="57.5" cy="10.829" r="5.733"/>
			</g>
		</g>
	</g>
	<g>
		<g>
			<g>
				<path class="st0" d="M96.67,92.338H18.191c-0.656,0-1.193,0.537-1.193,1.193c0,0.656,0.537,1.193,1.193,1.193H96.67
					c0.656,0,1.193-0.537,1.193-1.193C97.863,92.875,97.326,92.338,96.67,92.338z"/>
			</g>
		</g>
		<g>
			<g>
				<g>
					<path class="st0" d="M95.72,83.451c0-0.305,0.068-0.642,0.134-0.98l3.886-18.246l-5,0.677l-1.656,7.771v-0.136
						c0-0.979-0.811-1.722-2.737-1.722c-5.737,0-8.537,6.91-8.67,11.482c-1.545,1.691-3.111,2.944-5.557,2.944
						c-1.621,0-2.432-0.54-2.432-2.838c0-0.405,0.033-0.879,0.068-1.351c4.054-0.237,7.771-3.243,7.771-7.13
						c0-1.689-0.709-3.244-3.717-3.244c-6.61,0-8.906,7.407-9.102,11.462c-0.579,0.445-1.245,0.932-1.985,1.344
						c0.068-0.372,0.101-0.811,0.101-1.25c0-2.23-0.338-3.548-0.743-12.299l-5,0.675c-1.926,3.311-3.784,5.272-5.507,5.373
						c-0.035-3.48-1.454-5.305-4.325-5.305c-6.961,0-9.156,8.109-9.156,11.995c0,0.083,0.016,0.15,0.018,0.231
						c-0.617,1.127-1.57,1.898-2.589,1.898c-0.946,0-1.384-0.304-1.384-1.25c0-0.304,0.033-0.642,0.134-1.081l3.886-18.246l-5,0.677
						l-3.507,16.416c-0.679,0.697-1.409,1.329-2.204,1.878c-1.712,1.182-3.493,1.773-5.34,1.773c-1.083,0-2.023-0.213-2.823-0.642
						c-0.8-0.426-1.402-1.002-1.808-1.723c-0.789-1.395-1.182-3.007-1.182-4.832c0-2.118,0.325-4.135,0.98-6.05
						c0.652-1.915,1.604-3.493,2.855-4.732c1.252-1.239,2.641-1.859,4.174-1.859c1.171,0,2.079,0.316,2.722,0.947
						c0.641,0.631,0.962,1.476,0.962,2.535c0,1.059-0.303,1.909-0.912,2.551c-0.608,0.642-1.217,0.963-1.825,0.963
						c-0.609,0-1.059-0.18-1.353-0.541c-0.292-0.36-0.439-0.782-0.439-1.267s0.147-0.874,0.439-1.167c-1.193,0-2.1,0.22-2.72,0.659
						c-0.62,0.44-0.929,1.048-0.929,1.826c0,0.777,0.428,1.509,1.285,2.196c0.856,0.688,2.061,1.031,3.616,1.031
						s2.911-0.619,4.072-1.859c1.16-1.238,1.742-2.799,1.742-4.681c0-1.88-0.659-3.379-1.978-4.495
						c-1.318-1.114-3.132-1.672-5.441-1.672c-2.309,0-4.456,0.773-6.437,2.315c-1.984,1.544-3.476,3.515-4.479,5.914
						c-1.002,2.401-1.503,5.059-1.503,7.977c0,2.918,0.815,5.266,2.449,7.047c1.634,1.779,4.196,2.669,7.689,2.669
						c2.434,0,4.653-0.692,6.658-2.078c0.493-0.341,0.965-0.706,1.417-1.094c0.302,2.205,1.75,3.172,3.55,3.172
						c1.4,0,3.695-0.447,5.558-3.14c0.742,2.173,2.63,3.072,5.055,3.072c4.189,0,7.534-3.952,8.007-10.271
						c2.095-0.642,4.02-2.162,5.676-4.663c0.372,6.251,0.743,7.299,0.743,9.19c0,2.366-0.641,3.143-2.128,3.143
						c-1.285,0-1.96-0.946-1.96-2.533c0.169,0.338,0.574,0.439,0.912,0.439c0.879,0,1.623-0.71,1.623-1.52
						c0-0.98-0.609-1.419-1.758-1.419c-1.182,0-2.432,1.215-2.432,3.209c0,2.061,0.676,4.494,4.697,4.494
						c1.825,0,3.818-0.608,4.966-2.297c0.912-0.573,1.906-1.288,2.91-2.175c0.318,3.148,2.298,4.472,5.205,4.472
						c3.461,0,5.953-1.868,7.799-4.144c0.427,3.03,2.371,4.144,4.402,4.144c2.23,0,3.784-1.351,4.797-2.805
						c0.406,1.96,1.791,2.805,3.515,2.805c1.825,0,3.547-1.081,3.716-3.48c-0.202,0.102-0.472,0.203-1.081,0.203
						C96.058,84.802,95.72,84.228,95.72,83.451z M78.08,72.47c0.641,0,0.844,0.54,0.844,1.384c0,2.805-2.298,5.406-4.899,5.575
						C74.701,76.085,76.357,72.47,78.08,72.47z M52.666,77.977c-0.507,3.952-2.162,6.994-3.818,6.994
						c-1.283,0-1.724-0.507-1.724-2.737c0-3.311,1.994-9.494,4.393-9.494c0.844,0,1.217,0.54,1.285,1.959
						c-0.574,0.271-0.947,0.845-0.947,1.757C51.854,77.302,52.124,77.774,52.666,77.977z M90.99,82.37
						c-0.372,1.654-1.757,2.432-2.636,2.432c-0.608,0-1.689-0.035-1.689-2.636c0-3.176,1.858-9.258,4.73-9.258
						c1.013,0,1.318,0.777,1.384,1.182L90.99,82.37z"/>
				</g>
			</g>
		</g>
	</g>
</g>
</svg>
