<?xml version="1.0" encoding="utf-8"?>
<!-- Generator: Adobe Illustrator 18.0.0, SVG Export Plug-In . SVG Version: 6.00 Build 0)  -->
<!DOCTYPE svg PUBLIC "-//W3C//DTD SVG 1.1//EN" "http://www.w3.org/Graphics/SVG/1.1/DTD/svg11.dtd">
<svg version="1.1" id="ecommerce_1_" xmlns="http://www.w3.org/2000/svg" xmlns:xlink="http://www.w3.org/1999/xlink" x="0px"
	 y="0px" viewBox="0 0 115 115" style="enable-background:new 0 0 115 115;" xml:space="preserve">
<style type="text/css">
	.st0{fill:#FFEEAD;}
	.st1{fill:#C9B77D;}
	.st2{fill:#99734A;}
	.st3{fill:#FF6F69;}
	.st4{fill:#96CEB4;}
	.st5{fill:none;}
	.st6{fill:#AA9865;}
	.st7{fill:#71A58A;}
	.st8{fill:#FFCC5C;}
	.st9{fill:#825E3B;}
	.st10{fill:#639376;}
	.st11{fill:#E05858;}
	.st12{fill:#C1821E;}
	.st13{fill:#D6A041;}
	.st14{fill:#B28559;}
	.st15{fill:#BF4343;}
	.st16{fill:#D3C089;}
	.st17{fill:#7C5C3C;}
	.st18{fill:#FDCC5C;}
	.st19{fill:#FFFFFF;}
</style>
<g id="open_1_">
	<g>
		<g>
			<g>
				<g>
					<path class="st8" d="M97.453,46.913L61.909,9.987c-1.164-1.21-2.73-1.876-4.409-1.876s-3.245,0.666-4.409,1.876L17.547,46.913
						c-1.731,1.798-2.199,4.343-1.222,6.641c0.977,2.297,3.136,3.724,5.632,3.724h71.087c2.496,0,4.654-1.427,5.632-3.724
						C99.653,51.256,99.184,48.711,97.453,46.913z M96.066,52.444c-0.533,1.252-1.663,1.999-3.022,1.999H21.957
						c-1.36,0-2.49-0.748-3.023-1.999c-0.532-1.252-0.287-2.585,0.656-3.565l35.544-36.926c0.624-0.649,1.465-1.006,2.366-1.006
						s1.742,0.357,2.366,1.006L95.41,48.879C96.354,49.859,96.599,51.192,96.066,52.444z"/>
				</g>
			</g>
		</g>
		<g>
			<path class="st13" d="M97.453,46.913l-6.763-7.026h-3.936l8.655,8.992c0.944,0.98,1.189,2.313,0.656,3.565
				s-1.663,1.999-3.022,1.999H21.957c-1.36,0-2.49-0.748-3.023-1.999c-0.532-1.252-0.287-2.585,0.656-3.565l8.655-8.992h-3.936
				l-6.763,7.026c-1.731,1.798-2.199,4.343-1.222,6.641c0.977,2.297,3.136,3.724,5.632,3.724h71.087
				c2.496,0,4.654-1.427,5.632-3.724C99.653,51.256,99.184,48.711,97.453,46.913z"/>
		</g>
		<g>
			<path class="st13" d="M61.909,9.987c-1.164-1.21-2.73-1.876-4.409-1.876s-3.245,0.666-4.409,1.876l-3.087,3.207
				c0.304,0.966,0.79,1.851,1.417,2.616l3.712-3.857c0.624-0.649,1.465-1.006,2.366-1.006s1.742,0.357,2.366,1.006l3.713,3.857
				c0.628-0.765,1.113-1.65,1.417-2.616L61.909,9.987z"/>
		</g>
		<g>
			<path class="st4" d="M104.302,42.733H10.698C4.814,44.151,0,48.965,0,54.849v41.523c0,5.884,4.814,10.698,10.698,10.698h93.605
				c5.884,0,10.698-4.814,10.698-10.698V54.849C115,48.965,110.186,44.151,104.302,42.733z"/>
		</g>
		<g>
			<path class="st7" d="M104.302,46.986H10.698C4.814,46.986,0,51.8,0,57.684v41.523c0,5.884,4.814,10.698,10.698,10.698h93.605
				c5.884,0,10.698-4.814,10.698-10.698V57.684C115,51.8,110.186,46.986,104.302,46.986z"/>
		</g>
		<g>
			<g>
				<path class="st3" d="M99.072,53.242H15.928c-4.938,0-8.978,4.04-8.978,8.978v32.451c0,4.938,4.04,8.978,8.978,8.978h83.144
					c4.938,0,8.978-4.04,8.978-8.978V62.22C108.05,57.282,104.01,53.242,99.072,53.242z"/>
			</g>
			<g>
				<g>
					<path class="st8" d="M99.072,51.824H15.928c-5.732,0-10.396,4.664-10.396,10.396v32.452c0,5.731,4.663,10.395,10.396,10.395
						h83.144c5.731,0,10.395-4.664,10.395-10.395V62.219C109.467,56.488,104.803,51.824,99.072,51.824z M106.632,94.671
						c0,4.168-3.392,7.56-7.56,7.56H15.928c-4.168,0-7.56-3.392-7.56-7.56V62.219c0-4.168,3.392-7.56,7.56-7.56h83.144
						c4.168,0,7.56,3.392,7.56,7.56V94.671z"/>
				</g>
			</g>
		</g>
		<g>
			<circle class="st4" cx="57.5" cy="10.829" r="5.733"/>
		</g>
	</g>
	<g>
		<path class="st0" d="M37.071,61.285c-7.129,0-13.616,4.494-13.616,9.224c0,2.061,1.284,2.839,3.413,2.839
			c0-0.271-0.338-0.507-0.338-1.825c0-5.372,4.562-8.684,9.731-8.684c3.548,0,4.325,1.994,4.325,5.913
			c0,6.825-3.649,15.34-7.062,15.34c-1.385,0-1.96-1.622-1.96-3.919c0-5.203,2.838-13.853,5.913-15.712
			c-0.608-0.203-1.182-0.271-1.757-0.271c-6.082,0-9.156,10.373-9.156,15.847c0,4.933,2.5,6.791,6.048,6.791
			c8.853,0,12.468-10.373,12.468-16.894C45.079,64.9,42.985,61.285,37.071,61.285z"/>
	</g>
	<g>
		<g>
			<path class="st0" d="M56.235,69.563c-1.689,0-2.974,0.608-3.954,1.453l0.541-2.534h-4.865l-5.643,26.591l5.102-1.216l1.757-8.244
				c0.372,0.642,1.182,1.216,2.872,1.216c6.554,0,8.311-7.366,8.311-11.927C60.356,70.88,58.533,69.563,56.235,69.563z
				 M50.998,83.888c-0.777,0-1.149-0.406-1.284-0.777l1.994-9.461c0.642-1.081,1.589-1.656,2.332-1.656
				c0.608,0,1.689,0.203,1.689,2.805C55.728,77.976,54.546,83.888,50.998,83.888z"/>
		</g>
	</g>
	<g>
		<g>
			<path class="st0" d="M74.179,80.578c-1.689,1.926-3.311,3.413-5.981,3.413c-1.621,0-2.432-0.541-2.432-2.839
				c0-0.405,0.033-0.878,0.068-1.351c4.054-0.237,7.771-3.244,7.771-7.13c0-1.689-0.709-3.244-3.717-3.244
				c-6.926,0-9.122,8.143-9.122,12.029c0,3.818,2.095,5.372,5.27,5.372c4.494,0,7.366-3.143,9.292-6.251H74.179z M70.159,71.218
				c0.641,0,0.844,0.54,0.844,1.385c0,2.804-2.298,5.406-4.899,5.575C66.78,74.833,68.435,71.218,70.159,71.218z"/>
		</g>
	</g>
	<g>
		<path class="st0" d="M88.407,83.551c-1.013,0-1.351-0.575-1.351-1.419c0-1.892,1.621-5.981,1.621-8.718
			c0-2.703-1.588-3.818-3.75-3.818c-1.047,0-2.533,0.271-3.952,1.892l0.371-1.757H76.48l-3.581,16.894h4.865l2.298-10.846
			c0.507-1.689,1.419-3.109,2.635-3.109c0.811,0,1.217,0.608,1.217,1.724c0,2.162-1.52,6.318-1.52,8.616
			c0,1.926,0.81,3.818,3.413,3.818c1.79,0,3.412-1.047,3.716-3.48C89.319,83.483,88.981,83.551,88.407,83.551z"/>
	</g>
	<g>
		<path class="st0" d="M37.88,90.81H24.901c-0.617,0-1.122,0.505-1.122,1.122c0,0.617,0.505,1.122,1.122,1.122H37.88
			c0.617,0,1.122-0.505,1.122-1.122C39.002,91.315,38.497,90.81,37.88,90.81z"/>
	</g>
	<g>
		<path class="st0" d="M89.535,90.81H52.457c-0.617,0-1.122,0.505-1.122,1.122c0,0.617,0.505,1.122,1.122,1.122h37.078
			c0.617,0,1.122-0.505,1.122-1.122C90.658,91.315,90.153,90.81,89.535,90.81z"/>
	</g>
</g>
</svg>
